/vscmnt/brussel_pixiu_data/_data_brussel/112/vsc11236/PredSimResults/SUBJ10opt3D/weighted-expIG/worker_05.mot
version=1
nRows=10
nColumns=50
inDegrees=yes
endheader
                time	         pelvis_tilt	         pelvis_list	     pelvis_rotation	           pelvis_tx	           pelvis_ty	           pelvis_tz	       hip_flexion_r	     hip_adduction_r	      hip_rotation_r	        knee_angle_r	       ankle_angle_r	         mtp_angle_r	       hip_flexion_l	     hip_adduction_l	      hip_rotation_l	        knee_angle_l	       ankle_angle_l	         mtp_angle_l	    lumbar_extension	      lumbar_bending	     lumbar_rotation	 ercspn_r/activation	 intobl_r/activation	 extobl_r/activation	    abd_r/activation	    add_r/activation	hamstrings_r/activation	bifemsh_r/activation	glut_max_r/activation	iliopsoas_r/activation	rect_fem_r/activation	  vasti_r/activation	gastroc_r/activation	 soleus_r/activation	tib_ant_r/activation	 ercspn_l/activation	 intobl_l/activation	 extobl_l/activation	    abd_l/activation	    add_l/activation	hamstrings_l/activation	bifemsh_l/activation	glut_max_l/activation	iliopsoas_l/activation	rect_fem_l/activation	  vasti_l/activation	gastroc_l/activation	 soleus_l/activation	tib_ant_l/activation	
          1.80283289	         -5.08381942	          1.04743393	         -6.51760839	          1.94705952	          0.82288357	          0.01413373	        -13.88695435	         -0.38255239	          0.29064405	         -5.83465023	          9.32094901	         26.34748549	         30.65179608	         -1.49421292	         -5.97610434	         -4.46100755	          3.14362347	          0.25825357	         -6.16073075	          0.81715787	          7.02765615	          0.04931749	          0.00999999	          0.00999999	          0.07461240	          0.00999999	          0.01251027	          0.27264387	          0.02990684	          0.55952030	          0.00999999	          0.00999999	          0.36096338	          0.28393658	          0.02521591	          0.12531860	          0.16058692	          0.00999999	          0.00999999	          0.13940633	          0.14488459	          0.19344912	          0.02866009	          0.12886402	          0.00999999	          0.00999999	          0.01336901	          0.00999999	          0.27914378	
          1.81485178	         -5.13161773	          1.02061035	         -6.70309972	          1.96266520	          0.82113245	          0.01366303	        -14.05629744	         -0.52101823	         -0.00645473	         -7.40409497	          8.81879786	         28.04722961	         30.89709117	         -1.36761951	         -5.84287188	         -6.50138866	          2.79994673	          0.25904311	         -5.91560636	          0.29737458	          7.42356151	          0.10082284	          0.00999999	          0.00999999	          0.06216069	          0.04678449	          0.01752318	          0.22714364	          0.02491583	          0.52902440	          0.00999999	          0.00999999	          0.33245127	          0.27733165	          0.02100774	          0.10930941	          0.13378734	          0.00999999	          0.00999999	          0.25564004	          0.12207844	          0.16116533	          0.06843669	          0.10735852	          0.00999999	          0.00999999	          0.01645594	          0.01240849	          0.30171090	
          1.82687066	         -5.16628241	          1.02165028	         -6.86335271	          1.97872378	          0.81959743	          0.01312829	        -14.08692118	         -0.70316693	         -0.32211778	         -9.28034094	          8.16680322	         29.78480692	         30.92713473	         -1.25537938	         -5.57367119	         -8.45097442	          2.41308886	          0.24417794	         -5.63117750	         -0.25935679	          7.79236654	          0.11761740	          0.00999999	          0.00999999	          0.05178699	          0.07977268	          0.01459883	          0.18923673	          0.02075775	          0.44665498	          0.00999999	          0.00999999	          0.29483604	          0.26486603	          0.01750186	          0.09106729	          0.11146021	          0.00999999	          0.00999999	          0.21297750	          0.10205172	          0.13426922	          0.12081420	          0.08944197	          0.00999999	          0.00999999	          0.01370969	          0.01033769	          0.37289264	
          1.83888955	         -5.18999511	          1.03912521	         -6.98873896	          1.99504347	          0.81839257	          0.01245460	        -13.93199755	         -0.91919940	         -0.66669958	        -11.50751712	          7.31766344	         31.51737454	         30.75715303	         -1.12858699	         -5.35387625	        -10.07262986	          1.92364333	          0.23417475	         -5.32965557	         -0.82444202	          8.12728665	          0.13052605	          0.00999999	          0.00999999	          0.04314451	          0.06645983	          0.01644211	          0.15765592	          0.01729359	          0.37211487	          0.00999999	          0.00999999	          0.24563227	          0.24698736	          0.01458106	          0.10304908	          0.09285915	          0.00999999	          0.04651180	          0.18981742	          0.08903412	          0.11186167	          0.13916092	          0.07451543	          0.00999999	          0.00999999	          0.01142174	          0.00999999	          0.43267935	
          1.85090844	         -5.20428552	          1.05778752	         -7.07945867	          2.01139520	          0.81761223	          0.01164845	        -13.55220078	         -1.15339920	         -1.04229624	        -14.11345069	          6.25006985	         33.13556205	         30.49631344	         -0.99400624	         -5.24615861	        -11.55737099	          1.46332065	          0.22066670	         -5.03548127	         -1.38079335	          8.42283548	          0.16050341	          0.00999999	          0.00999999	          0.03594433	          0.06817287	          0.01989691	          0.13134548	          0.01440754	          0.31001441	          0.00999999	          0.00999999	          0.20463988	          0.22479776	          0.01214770	          0.10940998	          0.07736233	          0.00999999	          0.09140389	          0.21922773	          0.07445811	          0.09319362	          0.14772130	          0.06207991	          0.00999999	          0.00999999	          0.00999999	          0.00999999	          0.45999680	
          1.86292732	         -5.20984668	          1.07723359	         -7.13731559	          2.02759966	          0.81733279	          0.01073309	        -12.92069812	         -1.40603215	         -1.45201776	        -17.10954439	          4.98029224	         34.44333405	         30.21658162	         -0.85670185	         -5.22871521	        -13.03173527	          1.16978148	          0.20722125	         -4.76268350	         -1.92826579	          8.67567642	          0.18565011	          0.00999999	          0.00999999	          0.02994575	          0.13701010	          0.03019364	          0.10942587	          0.01200314	          0.25827759	          0.00999999	          0.00999999	          0.17048851	          0.19103874	          0.01012043	          0.10627543	          0.06445171	          0.00999999	          0.12464239	          0.23671148	          0.06818177	          0.07764098	          0.14330475	          0.05171969	          0.00999999	          0.05181930	          0.00999999	          0.00999999	          0.47553387	
          1.87494621	         -5.20921162	          1.09479324	         -7.16207801	          2.04351067	          0.81765182	          0.00973916	        -12.01404241	         -1.67480259	         -1.90995323	        -20.49977659	          3.55398782	         35.15040402	         29.90829416	         -0.71646663	         -5.26933490	        -14.45625837	          1.09899822	          0.19218790	         -4.52148396	         -2.46423380	          8.88364126	          0.19720496	          0.00999999	          0.00999999	          0.02494825	          0.20220994	          0.04249861	          0.09116431	          0.00999999	          0.21517489	          0.00999999	          0.00999999	          0.14203650	          0.15915720	          0.00999999	          0.10031395	          0.05369567	          0.00999999	          0.14669208	          0.25020138	          0.06711363	          0.06468385	          0.12093741	          0.04308844	          0.00999999	          0.09826162	          0.00999999	          0.00999999	          0.46495352	
          1.88696509	         -5.20501785	          1.10417140	         -7.15387676	          2.05904805	          0.81860988	          0.00869928	        -10.82556623	         -1.95869158	         -2.42161268	        -24.26898672	          2.00929081	         35.01039510	         29.52479284	         -0.57055894	         -5.32204368	        -15.74801418	          1.33524970	          0.18763031	         -4.31688413	         -2.98303425	          9.04545218	          0.20467748	          0.00999999	          0.00999999	          0.02078476	          0.26512167	          0.04692567	          0.07595034	          0.00999999	          0.17926538	          0.00999999	          0.00999999	          0.11833271	          0.13259622	          0.00999999	          0.09346785	          0.04473466	          0.00999999	          0.16024973	          0.24995709	          0.06811877	          0.05388907	          0.10075475	          0.03589762	          0.00999999	          0.14354839	          0.00999999	          0.00999999	          0.41304399	
          1.89898398	         -5.19982632	          1.09480844	         -7.11091918	          2.07417605	          0.82020868	          0.00764911	         -9.37836464	         -2.25046488	         -2.96985241	        -28.31139837	          0.20993819	         34.08709054	         29.00321054	         -0.42006907	         -5.34966654	        -16.78960033	          1.89326269	          0.23014378	         -4.15074834	         -3.47528797	          9.15884592	          0.20596613	          0.00999999	          0.00999999	          0.01731609	          0.32225839	          0.05944300	          0.06327535	          0.00999999	          0.14934864	          0.00999999	          0.00999999	          0.09858473	          0.11046787	          0.00999999	          0.07929326	          0.03726911	          0.00999999	          0.16137293	          0.22973685	          0.06974231	          0.04489579	          0.08394027	          0.02990684	          0.00999999	          0.17916693	          0.00999999	          0.00999999	          0.34570586	
          1.91100287	         -5.19599229	          1.05190582	         -7.02944294	          2.08886319	          0.82241004	          0.00661638	         -7.71395921	         -2.53310965	         -3.52224464	        -32.47867310	         -1.95954953	         32.47374100	         28.29841634	         -0.27405823	         -5.33109914	        -17.46971985	          2.60969984	          0.33920217	         -4.02794446	         -3.92656239	          9.22167064	          0.19870852	          0.00999999	          0.00999999	          0.01442629	          0.33874594	          0.05824155	          0.05514137	          0.00999999	          0.12442457	          0.00999999	          0.00999999	          0.08213240	          0.09203242	          0.00999999	          0.06606039	          0.03104944	          0.00999999	          0.15388266	          0.19139717	          0.07334750	          0.03740334	          0.06993188	          0.02491583	          0.00999999	          0.18744842	          0.00999999	          0.00999999	          0.28886948	
